<svg xmlns="http://www.w3.org/2000/svg" xmlns:xlink="http://www.w3.org/1999/xlink" width="1328" height="438" viewBox="0 0 1328 438">
  <defs>
    <clipPath id="clip-path">
      <rect id="Rectángulo_361020" data-name="Rectángulo 361020" width="1328" height="438" rx="20" transform="translate(0 0)" fill="#fff" stroke="#707070" stroke-width="1"/>
    </clipPath>
  </defs>
  <g id="Enmascarar_grupo_998589" data-name="Enmascarar grupo 998589" transform="translate(1328 438) rotate(180)" clip-path="url(#clip-path)">
    <g id="bg-curve" transform="translate(0 -518.935)">
      <path id="Trazado_774122" data-name="Trazado 774122" d="M1328,914.087V67.808C937.048,192.782,513.822,32.111,0,0V846.279C390.952,721.305,814.178,881.976,1328,914.087Z" fill="#fcf6d8"/>
      <path id="Trazado_774123" data-name="Trazado 774123" d="M86.616,527.136A1438.638,1438.638,0,0,0,0,772.116l2.624.373A1424.9,1424.9,0,0,1,88.795,528.336c51.974-113.573,78.157-224.658,77.824-330.17C166.4,128.092,154.511,61.748,131.321,0c-.86.1-1.723.178-2.583.272C186.812,155.126,172.654,339.128,86.616,527.136Z" transform="translate(1007.538 107.395)" fill="#fff"/>
      <path id="Trazado_774124" data-name="Trazado 774124" d="M35.724,671.388c-9.687,20.136-19.7,40.954-29.226,61.228-2.244,4.775-4.4,9.536-6.5,14.289l2.544.4c1.985-4.48,4.007-8.964,6.121-13.462,9.519-20.258,19.532-41.075,29.215-61.2,85.951-178.68,174.828-363.445,119.036-547.987Q137.344,59.906,95.071.042,93.52.023,91.968,0,134.939,60.386,154.6,125.49C210.066,308.951,121.436,493.2,35.724,671.388Z" transform="translate(887.134 114.55)" fill="#fff"/>
      <path id="Trazado_774125" data-name="Trazado 774125" d="M1.589,328.681c-6.083,91.1,5.261,171.905,34.68,247.024,19.146,48.889,46.1,95.914,82.7,143.1v-4.12c-35.5-46.173-61.734-92.215-80.461-140.03-58.722-149.943-46.7-323.187,39-561.734C79.056,8.6,80.524,4.3,81.954,0c-.944.258-1.893.49-2.838.745C77.862,4.469,76.58,8.2,75.238,11.934,31.846,132.727,7.755,236.338,1.589,328.681Z" transform="translate(1209.03 78.77)" fill="#fff"/>
      <path id="Trazado_774126" data-name="Trazado 774126" d="M178.772,344.314c24.775,160.607-22.387,322.3-133.64,464.694q1.977-.337,3.955-.665C94.826,749.585,129.627,687.654,153,623.276c33.193-91.431,42.673-185.435,28.178-279.406C164.844,237.988,117.57,135.015,44.466,46.085Q25.026,22.437,3.3.3,1.652.145,0,0C95.862,97.042,159,216.125,178.772,344.314Z" transform="translate(82.596 6.294)" fill="#fff"/>
      <path id="Trazado_774127" data-name="Trazado 774127" d="M100.631,336.265C106.5,232.95,73.393,121.874,0,0V4.9C71.648,124.912,103.98,234.339,98.2,336.1,92.763,431.741,54.388,513.072,0,586.655v4.263C55.672,516.3,95.093,433.721,100.631,336.265Z" transform="translate(0 113.596)" fill="#fff"/>
      <path id="Trazado_774128" data-name="Trazado 774128" d="M204.907,379.937c8.065,96.637-23.526,187-93.893,268.586C72.223,693.5,38.845,736.638,10.5,778.486c1.013-.061,2.028-.112,3.041-.17,28.155-41.278,61.12-83.751,99.247-127.956C183.655,568.2,215.467,477.129,207.335,379.7,199.938,291.073,155.622,160.61,3.993.519,2.661.347,1.333.171,0,0,152.956,160.618,197.511,291.328,204.907,379.937Z" transform="translate(237.178 23.244)" fill="#fff"/>
    </g>
  </g>
</svg>
