<svg xmlns="http://www.w3.org/2000/svg" xmlns:xlink="http://www.w3.org/1999/xlink" width="1328" height="320" viewBox="0 0 1328 320">
  <defs>
    <clipPath id="clip-path">
      <rect id="Rectángulo_361020" data-name="Rectángulo 361020" width="1328" height="320" rx="20" fill="#fff" stroke="#707070" stroke-width="1"/>
    </clipPath>
  </defs>
  <g id="Enmascarar_grupo_998589" data-name="Enmascarar grupo 998589" transform="translate(1328 320) rotate(180)" clip-path="url(#clip-path)">
    <g id="bg-curve" transform="translate(0 -379.131)">
      <path id="Trazado_774122" data-name="Trazado 774122" d="M1328,667.826V49.54C937.048,140.845,513.822,23.46,0,0V618.286C390.952,526.981,814.178,644.366,1328,667.826Z" fill="#fcf6d8"/>
      <path id="Trazado_774123" data-name="Trazado 774123" d="M86.616,385.122C49.985,443.6,21.02,503.525,0,564.1l2.624.273C22.138,507.943,49.932,448.043,88.795,386c51.974-82.976,78.157-164.134,77.824-241.22A316.071,316.071,0,0,0,131.321,0c-.86.07-1.723.13-2.583.2C186.812,113.334,172.654,247.765,86.616,385.122Z" transform="translate(1007.538 78.462)" fill="#fff"/>
      <path id="Trazado_774124" data-name="Trazado 774124" d="M35.724,490.512c-9.687,14.711-19.7,29.921-29.226,44.733-2.244,3.489-4.4,6.967-6.5,10.44l2.544.289c1.985-3.273,4.007-6.549,6.121-9.836,9.519-14.8,19.532-30.009,29.215-44.713C123.831,360.881,212.708,225.894,156.916,91.068Q137.344,43.767,95.071.031,93.52.017,91.968,0,134.939,44.118,154.6,91.682C210.066,225.718,121.436,360.332,35.724,490.512Z" transform="translate(887.134 83.689)" fill="#fff"/>
      <path id="Trazado_774125" data-name="Trazado 774125" d="M1.589,240.132c-6.083,66.559,5.261,125.593,34.68,180.474,19.146,35.718,46.1,70.074,82.7,104.545v-3.01c-35.5-33.734-61.734-67.372-80.461-102.305-58.722-109.547-46.7-236.118,39-410.4C79.056,6.285,80.524,3.142,81.954,0c-.944.189-1.893.358-2.838.545-1.254,2.72-2.536,5.444-3.878,8.175C31.846,96.97,7.755,172.667,1.589,240.132Z" transform="translate(1209.03 57.549)" fill="#fff"/>
      <path id="Trazado_774126" data-name="Trazado 774126" d="M178.772,251.553c24.775,117.338-22.387,235.47-133.64,339.5q1.977-.246,3.955-.486C94.826,547.642,129.627,502.4,153,455.362c33.193-66.8,42.673-135.478,28.178-204.132C164.844,173.872,117.57,98.641,44.466,33.67Q25.026,16.393,3.3.216,1.652.106,0,0C95.862,70.9,159,157.9,178.772,251.553Z" transform="translate(82.596 4.598)" fill="#fff"/>
      <path id="Trazado_774127" data-name="Trazado 774127" d="M100.631,245.673C106.5,170.192,73.393,89.041,0,0V3.576C71.648,91.26,103.98,171.207,98.2,245.551c-5.435,69.876-43.81,129.3-98.2,183.055v3.114C55.672,377.206,95.093,316.874,100.631,245.673Z" transform="translate(0 82.993)" fill="#fff"/>
      <path id="Trazado_774128" data-name="Trazado 774128" d="M204.907,277.58c8.065,70.6-23.526,136.623-93.893,196.227C72.223,506.665,38.845,538.183,10.5,568.757c1.013-.044,2.028-.082,3.041-.124,28.155-30.157,61.12-61.188,99.247-93.484C183.655,415.12,215.467,348.587,207.335,277.4,199.938,212.656,155.622,117.341,3.993.379,2.661.253,1.333.125,0,0,152.956,117.347,197.511,212.842,204.907,277.58Z" transform="translate(237.178 16.982)" fill="#fff"/>
    </g>
  </g>
</svg>
