<svg xmlns="http://www.w3.org/2000/svg" xmlns:xlink="http://www.w3.org/1999/xlink" width="92" height="92" viewBox="0 0 92 92">
  <defs>
    <clipPath id="clip-path">
      <rect id="Rectángulo_361719" data-name="Rectángulo 361719" width="92" height="92" transform="translate(754 2590)" fill="#fff"/>
    </clipPath>
  </defs>
  <g id="Enmascarar_grupo_998591" data-name="Enmascarar grupo 998591" transform="translate(-754 -2590)" clip-path="url(#clip-path)">
    <g id="jerarquia" transform="translate(754.001 2590)">
      <g id="Grupo_1029424" data-name="Grupo 1029424">
        <g id="Grupo_1029413" data-name="Grupo 1029413">
          <g id="Grupo_1029411" data-name="Grupo 1029411">
            <path id="Trazado_775616" data-name="Trazado 775616" d="M76.049,90.651a7.3,7.3,0,1,0-14.6,0Z" fill="#b2e4a0"/>
            <path id="Trazado_775617" data-name="Trazado 775617" d="M71.426,83.855a7.306,7.306,0,0,0-4.623,6.8H61.446a7.306,7.306,0,0,1,9.98-6.8Z" fill="#93d5a3"/>
            <circle id="Elipse_8783" data-name="Elipse 8783" cx="5.358" cy="5.358" r="5.358" transform="translate(63.39 73.606)" fill="#ffddce"/>
            <path id="Trazado_775618" data-name="Trazado 775618" d="M70.727,83.943a5.358,5.358,0,1,1,0-9.958,5.358,5.358,0,0,0,0,9.958Z" fill="#ffcbbe"/>
          </g>
          <g id="Grupo_1029412" data-name="Grupo 1029412">
            <path id="Trazado_775619" data-name="Trazado 775619" d="M83.351,90.651a7.3,7.3,0,0,0-14.6,0Z" fill="#b2e4a0"/>
            <path id="Trazado_775620" data-name="Trazado 775620" d="M78.728,83.855a7.306,7.306,0,0,0-4.623,6.8H68.748a7.306,7.306,0,0,1,9.98-6.8Z" fill="#93d5a3"/>
            <circle id="Elipse_8784" data-name="Elipse 8784" cx="5.358" cy="5.358" r="5.358" transform="translate(70.691 73.606)" fill="#ffddce"/>
            <path id="Trazado_775621" data-name="Trazado 775621" d="M78.028,83.943a5.358,5.358,0,1,1,0-9.958,5.358,5.358,0,0,0,0,9.958Z" fill="#ffcbbe"/>
          </g>
          <path id="Trazado_775622" data-name="Trazado 775622" d="M90.652,90.651a7.3,7.3,0,0,0-14.6,0Z" fill="#b2e4a0"/>
          <path id="Trazado_775623" data-name="Trazado 775623" d="M86.029,83.855a7.306,7.306,0,0,0-4.623,6.8H76.049a7.306,7.306,0,0,1,9.98-6.8Z" fill="#93d5a3"/>
          <circle id="Elipse_8785" data-name="Elipse 8785" cx="5.358" cy="5.358" r="5.358" transform="translate(77.993 73.606)" fill="#ffddce"/>
          <path id="Trazado_775624" data-name="Trazado 775624" d="M85.33,83.943a5.358,5.358,0,1,1,0-9.958,5.358,5.358,0,0,0,0,9.958Z" fill="#ffcbbe"/>
        </g>
        <g id="Grupo_1029416" data-name="Grupo 1029416">
          <g id="Grupo_1029414" data-name="Grupo 1029414">
            <path id="Trazado_775625" data-name="Trazado 775625" d="M46,90.651a7.3,7.3,0,1,0-14.6,0Z" fill="#8fd9f8"/>
            <path id="Trazado_775626" data-name="Trazado 775626" d="M41.376,83.855a7.306,7.306,0,0,0-4.623,6.8H31.4a7.306,7.306,0,0,1,9.98-6.8Z" fill="#75cef7"/>
            <circle id="Elipse_8786" data-name="Elipse 8786" cx="5.358" cy="5.358" r="5.358" transform="translate(33.34 73.606)" fill="#ffddce"/>
            <path id="Trazado_775627" data-name="Trazado 775627" d="M40.677,83.943a5.358,5.358,0,1,1,0-9.958,5.358,5.358,0,0,0,0,9.958Z" fill="#ffcbbe"/>
          </g>
          <g id="Grupo_1029415" data-name="Grupo 1029415">
            <path id="Trazado_775628" data-name="Trazado 775628" d="M53.3,90.651a7.3,7.3,0,0,0-14.6,0Z" fill="#8fd9f8"/>
            <path id="Trazado_775629" data-name="Trazado 775629" d="M48.678,83.855a7.306,7.306,0,0,0-4.623,6.8H38.7a7.306,7.306,0,0,1,9.98-6.8Z" fill="#75cef7"/>
            <circle id="Elipse_8787" data-name="Elipse 8787" cx="5.358" cy="5.358" r="5.358" transform="translate(40.642 73.606)" fill="#ffddce"/>
            <path id="Trazado_775630" data-name="Trazado 775630" d="M47.978,83.943a5.358,5.358,0,1,1,0-9.958,5.358,5.358,0,0,0,0,9.958Z" fill="#ffcbbe"/>
          </g>
          <path id="Trazado_775631" data-name="Trazado 775631" d="M60.6,90.651a7.3,7.3,0,0,0-14.6,0Z" fill="#8fd9f8"/>
          <path id="Trazado_775632" data-name="Trazado 775632" d="M55.979,83.855a7.306,7.306,0,0,0-4.623,6.8H46a7.306,7.306,0,0,1,9.98-6.8Z" fill="#75cef7"/>
          <circle id="Elipse_8788" data-name="Elipse 8788" cx="5.358" cy="5.358" r="5.358" transform="translate(47.943 73.606)" fill="#ffddce"/>
          <path id="Trazado_775633" data-name="Trazado 775633" d="M55.28,83.943a5.358,5.358,0,1,1,0-9.958,5.358,5.358,0,0,0,0,9.958Z" fill="#ffcbbe"/>
        </g>
        <g id="Grupo_1029419" data-name="Grupo 1029419">
          <g id="Grupo_1029417" data-name="Grupo 1029417">
            <path id="Trazado_775634" data-name="Trazado 775634" d="M15.949,90.651a7.3,7.3,0,1,0-14.6,0Z" fill="#f6df7d"/>
            <path id="Trazado_775635" data-name="Trazado 775635" d="M11.326,83.855a7.306,7.306,0,0,0-4.623,6.8H1.346a7.306,7.306,0,0,1,9.98-6.8Z" fill="#f3cf64"/>
            <circle id="Elipse_8789" data-name="Elipse 8789" cx="5.358" cy="5.358" r="5.358" transform="translate(3.29 73.606)" fill="#ffddce"/>
            <path id="Trazado_775636" data-name="Trazado 775636" d="M10.627,83.943a5.358,5.358,0,1,1,0-9.958,5.358,5.358,0,0,0,0,9.958Z" fill="#ffcbbe"/>
          </g>
          <g id="Grupo_1029418" data-name="Grupo 1029418">
            <path id="Trazado_775637" data-name="Trazado 775637" d="M23.251,90.651a7.3,7.3,0,1,0-14.6,0Z" fill="#f6df7d"/>
            <path id="Trazado_775638" data-name="Trazado 775638" d="M18.628,83.855A7.306,7.306,0,0,0,14,90.651H8.648a7.306,7.306,0,0,1,9.98-6.8Z" fill="#f3cf64"/>
            <circle id="Elipse_8790" data-name="Elipse 8790" cx="5.358" cy="5.358" r="5.358" transform="translate(10.592 73.606)" fill="#ffddce"/>
            <path id="Trazado_775639" data-name="Trazado 775639" d="M17.928,83.943a5.358,5.358,0,1,1,0-9.958,5.358,5.358,0,0,0,0,9.958Z" fill="#ffcbbe"/>
          </g>
          <path id="Trazado_775640" data-name="Trazado 775640" d="M30.553,90.651a7.3,7.3,0,1,0-14.6,0Z" fill="#f6df7d"/>
          <path id="Trazado_775641" data-name="Trazado 775641" d="M25.929,83.855a7.306,7.306,0,0,0-4.623,6.8H15.949a7.306,7.306,0,0,1,9.98-6.8Z" fill="#f3cf64"/>
          <circle id="Elipse_8791" data-name="Elipse 8791" cx="5.358" cy="5.358" r="5.358" transform="translate(17.893 73.606)" fill="#ffddce"/>
          <path id="Trazado_775642" data-name="Trazado 775642" d="M25.23,83.943a5.358,5.358,0,1,1,0-9.958,5.358,5.358,0,0,0,0,9.958Z" fill="#ffcbbe"/>
        </g>
        <g id="Grupo_1029420" data-name="Grupo 1029420">
          <path id="Trazado_775643" data-name="Trazado 775643" d="M53.3,18.393a7.3,7.3,0,0,0-14.6,0Z" fill="#8b808f"/>
          <path id="Trazado_775644" data-name="Trazado 775644" d="M48.678,11.6a7.306,7.306,0,0,0-4.623,6.8H38.7a7.306,7.306,0,0,1,9.98-6.8Z" fill="#766c78"/>
          <circle id="Elipse_8792" data-name="Elipse 8792" cx="5.358" cy="5.358" r="5.358" transform="translate(40.642 1.348)" fill="#ffddce"/>
          <path id="Trazado_775645" data-name="Trazado 775645" d="M47.979,11.685a5.358,5.358,0,1,1,0-9.958,5.358,5.358,0,0,0,0,9.958Z" fill="#ffcbbe"/>
        </g>
        <g id="Grupo_1029421" data-name="Grupo 1029421">
          <path id="Trazado_775646" data-name="Trazado 775646" d="M53.3,54.948a7.3,7.3,0,0,0-14.6,0Z" fill="#dd636e"/>
          <path id="Trazado_775647" data-name="Trazado 775647" d="M48.678,48.153a7.306,7.306,0,0,0-4.623,6.8H38.7a7.306,7.306,0,0,1,9.98-6.8Z" fill="#da4a54"/>
          <circle id="Elipse_8793" data-name="Elipse 8793" cx="5.358" cy="5.358" r="5.358" transform="translate(40.642 37.903)" fill="#ffddce"/>
          <path id="Trazado_775648" data-name="Trazado 775648" d="M47.979,48.24a5.358,5.358,0,1,1,0-9.958,5.358,5.358,0,0,0,0,9.958Z" fill="#ffcbbe"/>
        </g>
        <g id="Grupo_1029422" data-name="Grupo 1029422">
          <path id="Trazado_775649" data-name="Trazado 775649" d="M23.251,54.948a7.3,7.3,0,0,0-14.6,0Z" fill="#dd636e"/>
          <path id="Trazado_775650" data-name="Trazado 775650" d="M18.628,48.153A7.306,7.306,0,0,0,14,54.948H8.648a7.306,7.306,0,0,1,9.98-6.8Z" fill="#da4a54"/>
          <circle id="Elipse_8794" data-name="Elipse 8794" cx="5.358" cy="5.358" r="5.358" transform="translate(10.592 37.903)" fill="#ffddce"/>
          <path id="Trazado_775651" data-name="Trazado 775651" d="M17.928,48.24a5.358,5.358,0,1,1,0-9.958,5.358,5.358,0,0,0,0,9.958Z" fill="#ffcbbe"/>
        </g>
        <g id="Grupo_1029423" data-name="Grupo 1029423">
          <path id="Trazado_775652" data-name="Trazado 775652" d="M83.351,54.948a7.3,7.3,0,0,0-14.6,0Z" fill="#dd636e"/>
          <path id="Trazado_775653" data-name="Trazado 775653" d="M78.728,48.153a7.306,7.306,0,0,0-4.623,6.8H68.748a7.306,7.306,0,0,1,9.98-6.8Z" fill="#da4a54"/>
          <circle id="Elipse_8795" data-name="Elipse 8795" cx="5.358" cy="5.358" r="5.358" transform="translate(70.691 37.903)" fill="#ffddce"/>
          <path id="Trazado_775654" data-name="Trazado 775654" d="M78.028,48.24a5.358,5.358,0,1,1,0-9.958,5.358,5.358,0,0,0,0,9.958Z" fill="#ffcbbe"/>
        </g>
      </g>
      <g id="Grupo_1029425" data-name="Grupo 1029425">
        <path id="Trazado_775655" data-name="Trazado 775655" d="M88.257,83.528A6.7,6.7,0,0,0,79.7,73.343a6.687,6.687,0,0,0-7.3,0,6.7,6.7,0,0,0-8.558,10.184,8.668,8.668,0,0,0-2.817,3.234,8.67,8.67,0,0,0-2.817-3.234,6.7,6.7,0,0,0-8.556-10.185,6.687,6.687,0,0,0-7.3,0,6.7,6.7,0,0,0-8.559,10.184,8.668,8.668,0,0,0-2.817,3.234,8.67,8.67,0,0,0-2.817-3.234A6.7,6.7,0,0,0,19.6,73.343a6.687,6.687,0,0,0-7.3,0,6.678,6.678,0,0,0-3.652-1.085c-.057,0-.118,0-.176.005a1.348,1.348,0,1,0,.2,2.688l-.021,0a3.989,3.989,0,0,1,1.674.371,6.681,6.681,0,0,0,0,7.278A4.006,4.006,0,0,1,5.2,76.923a1.348,1.348,0,0,0-2.316-1.379,6.692,6.692,0,0,0,.86,7.984A8.66,8.66,0,0,0,0,90.652,1.348,1.348,0,0,0,1.347,92h29.2a1.344,1.344,0,0,0,.424-.069A1.343,1.343,0,0,0,31.4,92H60.6a1.344,1.344,0,0,0,.424-.069,1.343,1.343,0,0,0,.422.068h29.2A1.348,1.348,0,0,0,92,90.652a8.657,8.657,0,0,0-3.741-7.125Zm-61-4.564a4.01,4.01,0,1,1-4.01-4.01A4.015,4.015,0,0,1,27.261,78.963Zm-9.638-3.639a6.683,6.683,0,0,0,0,7.278,4.01,4.01,0,1,1,0-7.278Zm-11.4,9.889a6.67,6.67,0,0,0,2.423.455c.079,0,.158,0,.237-.006A8.653,8.653,0,0,0,7.407,89.3H2.85A5.959,5.959,0,0,1,6.226,85.213Zm7.3,0a6.671,6.671,0,0,0,2.423.455c.079,0,.158,0,.237-.006A8.653,8.653,0,0,0,14.709,89.3H10.151A5.959,5.959,0,0,1,13.527,85.213Zm3.926,4.09a5.959,5.959,0,0,1,3.375-4.089,6.68,6.68,0,0,0,4.846,0A5.959,5.959,0,0,1,29.05,89.3Zm39.859-10.34a4.01,4.01,0,1,1-4.01-4.01A4.015,4.015,0,0,1,57.311,78.963Zm-9.638-3.639a6.683,6.683,0,0,0,0,7.278,4.01,4.01,0,1,1,0-7.278ZM38.7,74.954a3.989,3.989,0,0,1,1.674.371,6.681,6.681,0,0,0,0,7.278A4.008,4.008,0,1,1,38.7,74.954Zm-2.423,10.26a6.671,6.671,0,0,0,2.423.455c.079,0,.158,0,.238-.006A8.653,8.653,0,0,0,37.457,89.3H32.9A5.959,5.959,0,0,1,36.275,85.213Zm7.3,0A6.671,6.671,0,0,0,46,85.668c.079,0,.158,0,.237-.006A8.653,8.653,0,0,0,44.758,89.3H40.2A5.96,5.96,0,0,1,43.577,85.213ZM47.5,89.3a5.959,5.959,0,0,1,3.375-4.089,6.68,6.68,0,0,0,4.846,0A5.959,5.959,0,0,1,59.1,89.3Zm39.859-10.34a4.01,4.01,0,1,1-4.01-4.01A4.015,4.015,0,0,1,87.361,78.963Zm-9.638-3.639a6.683,6.683,0,0,0,0,7.278,4.01,4.01,0,1,1,0-7.278Zm-8.975-.371a3.989,3.989,0,0,1,1.674.371,6.681,6.681,0,0,0,0,7.278,4.008,4.008,0,1,1-1.673-7.649Zm-2.424,10.26a6.671,6.671,0,0,0,2.423.455c.079,0,.158,0,.238-.006A8.653,8.653,0,0,0,67.507,89.3H62.949a5.96,5.96,0,0,1,3.375-4.09Zm7.3,0a6.671,6.671,0,0,0,2.423.455c.079,0,.158,0,.237-.006A8.653,8.653,0,0,0,74.808,89.3H70.251a5.96,5.96,0,0,1,3.375-4.09Zm3.926,4.09a5.959,5.959,0,0,1,3.375-4.089,6.68,6.68,0,0,0,4.846,0A5.959,5.959,0,0,1,89.15,89.3Z"/>
        <path id="Trazado_775656" data-name="Trazado 775656" d="M37.352,18.394A1.348,1.348,0,0,0,38.7,19.741H53.3a1.348,1.348,0,0,0,1.348-1.348,8.66,8.66,0,0,0-3.742-7.124,6.705,6.705,0,1,0-9.812,0,8.66,8.66,0,0,0-3.742,7.124ZM46,2.7a4.01,4.01,0,1,1-4.01,4.01A4.015,4.015,0,0,1,46,2.7ZM43.577,12.956a6.681,6.681,0,0,0,4.846,0,5.959,5.959,0,0,1,3.375,4.09H40.2A5.96,5.96,0,0,1,43.577,12.956Z"/>
        <path id="Trazado_775657" data-name="Trazado 775657" d="M38.7,56.3H53.3a1.348,1.348,0,0,0,1.348-1.348,8.66,8.66,0,0,0-3.742-7.124,6.705,6.705,0,1,0-9.812,0,8.66,8.66,0,0,0-3.742,7.124A1.348,1.348,0,0,0,38.7,56.3ZM46,39.251a4.01,4.01,0,1,1-4.01,4.01A4.015,4.015,0,0,1,46,39.251ZM43.577,49.511a6.68,6.68,0,0,0,4.846,0A5.959,5.959,0,0,1,51.8,53.6H40.2A5.96,5.96,0,0,1,43.577,49.511Z"/>
        <path id="Trazado_775658" data-name="Trazado 775658" d="M7.3,54.949A1.348,1.348,0,0,0,8.649,56.3h14.6A1.348,1.348,0,0,0,24.6,54.949a8.66,8.66,0,0,0-3.742-7.124,6.706,6.706,0,1,0-9.813,0A8.66,8.66,0,0,0,7.3,54.949Zm8.648-15.7a4.01,4.01,0,1,1-4.01,4.01A4.015,4.015,0,0,1,15.949,39.251ZM13.526,49.511a6.68,6.68,0,0,0,4.846,0,5.959,5.959,0,0,1,3.376,4.09h-11.6A5.959,5.959,0,0,1,13.526,49.511Z"/>
        <path id="Trazado_775659" data-name="Trazado 775659" d="M71.143,47.825A8.66,8.66,0,0,0,67.4,54.949,1.348,1.348,0,0,0,68.749,56.3h14.6A1.348,1.348,0,0,0,84.7,54.949a8.66,8.66,0,0,0-3.742-7.124,6.706,6.706,0,1,0-9.812,0ZM70.25,53.6a5.959,5.959,0,0,1,3.376-4.09,6.68,6.68,0,0,0,4.846,0,5.959,5.959,0,0,1,3.376,4.09Zm5.8-14.351a4.01,4.01,0,1,1-4.01,4.01A4.015,4.015,0,0,1,76.049,39.251Z"/>
        <path id="Trazado_775660" data-name="Trazado 775660" d="M22.2,35.139a1.343,1.343,0,0,0,.953-.395l12.26-12.26A1.348,1.348,0,0,0,33.5,20.578l-12.26,12.26a1.348,1.348,0,0,0,.953,2.3Z"/>
        <path id="Trazado_775661" data-name="Trazado 775661" d="M58.516,24.408A1.348,1.348,0,0,0,60.422,22.5L58.5,20.578a1.348,1.348,0,0,0-1.906,1.906Z"/>
        <path id="Trazado_775662" data-name="Trazado 775662" d="M68.852,34.744a1.348,1.348,0,0,0,1.906-1.906l-6.526-6.526a1.348,1.348,0,0,0-1.906,1.906Z"/>
        <path id="Trazado_775663" data-name="Trazado 775663" d="M44.652,22.65V33.791a1.348,1.348,0,1,0,2.7,0V22.65a1.348,1.348,0,1,0-2.7,0Z"/>
        <path id="Trazado_775664" data-name="Trazado 775664" d="M14.6,58.707V69.848a1.348,1.348,0,1,0,2.7,0V58.707a1.348,1.348,0,0,0-2.7,0Z"/>
        <path id="Trazado_775665" data-name="Trazado 775665" d="M44.652,58.707V69.848a1.348,1.348,0,1,0,2.7,0V58.707a1.348,1.348,0,0,0-2.7,0Z"/>
        <path id="Trazado_775666" data-name="Trazado 775666" d="M74.7,58.707V69.848a1.348,1.348,0,0,0,2.7,0V58.707a1.348,1.348,0,0,0-2.7,0Z"/>
      </g>
    </g>
  </g>
</svg>
