<svg xmlns="http://www.w3.org/2000/svg" xmlns:xlink="http://www.w3.org/1999/xlink" width="92" height="92" viewBox="0 0 92 92">
  <defs>
    <clipPath id="clip-path">
      <rect id="Rectángulo_361720" data-name="Rectángulo 361720" width="92" height="92" transform="translate(1174 2590)" fill="#fff"/>
    </clipPath>
  </defs>
  <g id="Enmascarar_grupo_998592" data-name="Enmascarar grupo 998592" transform="translate(-1174 -2590)" clip-path="url(#clip-path)">
    <g id="red" transform="translate(1174 2590)">
      <g id="Grupo_1029435" data-name="Grupo 1029435">
        <g id="Grupo_1029434" data-name="Grupo 1029434">
          <path id="Trazado_775667" data-name="Trazado 775667" d="M24.14,24.205A22.8,22.8,0,0,0,12.847,66.8l1.548-.845,19.523-.284L35.4,66.818A22.8,22.8,0,0,0,24.14,24.205Z" fill="#98bce5"/>
          <path id="Trazado_775668" data-name="Trazado 775668" d="M16.953,60.382a22.8,22.8,0,0,1,12.82-35.474A22.8,22.8,0,0,0,12.845,66.8Z" fill="#7bacdf"/>
          <circle id="Elipse_8796" data-name="Elipse 8796" cx="17.407" cy="17.407" r="17.407" transform="translate(6.734 29.592)" fill="#5f99d7"/>
          <path id="Trazado_775669" data-name="Trazado 775669" d="M20.167,30.05a17.409,17.409,0,0,0,0,33.9,22.788,22.788,0,0,1,0-33.9Z" fill="#3c87d0"/>
          <g id="XMLID_171_">
            <g id="Grupo_1029426" data-name="Grupo 1029426">
              <path id="Trazado_775670" data-name="Trazado 775670" d="M35.319,61.5a4.223,4.223,0,0,0-1.524-3.248l-6.4-5.315-1.325-1.358H22.207l-1.359,1.358-6.4,5.315A4.229,4.229,0,0,0,12.922,61.5l-.077,5.3a22.828,22.828,0,0,0,22.56.016Z" fill="#ade194"/>
              <path id="Trazado_775671" data-name="Trazado 775671" d="M28.32,53.7l-.927-.769-1.325-1.358H22.207l-1.359,1.358-6.4,5.315A4.229,4.229,0,0,0,12.922,61.5l-.077,5.3a22.7,22.7,0,0,0,4.3,1.892l.074-5.069a4.229,4.229,0,0,1,1.524-3.248l1.7-1.408a3.174,3.174,0,0,1,2.592-.707,6,6,0,0,0,1.093.1,5.969,5.969,0,0,0,5.475-3.6Z" fill="#97da7b"/>
              <path id="Trazado_775672" data-name="Trazado 775672" d="M27.393,46.983V52.4a3.212,3.212,0,0,1-.043.53,3.273,3.273,0,0,1-6.459,0,3.211,3.211,0,0,1-.043-.53V46.965l.068-.147a7.628,7.628,0,0,0,6.409.018Z" fill="#fed2a4"/>
              <path id="Trazado_775673" data-name="Trazado 775673" d="M28.67,31.162H20.006l-2.688-.883a.6.6,0,0,0-.792.575v7.452l2.586,2.768H30.343l1.412-2.768V34.247a3.084,3.084,0,0,0-3.085-3.085Z" fill="#a79ba7"/>
              <path id="Trazado_775674" data-name="Trazado 775674" d="M20.848,34.314a.6.6,0,0,1,.792-.575l2.688.883h7.427v-.377a3.084,3.084,0,0,0-3.085-3.085H20.006l-2.688-.883a.6.6,0,0,0-.792.575V38.3l2.586,2.768h1.736Z" fill="#918291"/>
              <path id="Trazado_775675" data-name="Trazado 775675" d="M31.755,38.305v4.846a7.614,7.614,0,1,1-15.229,0V38.305Z" fill="#fed2a4"/>
              <path id="Trazado_775676" data-name="Trazado 775676" d="M25.239,50.05a7.612,7.612,0,0,1-4.39-6.9V38.305H16.526v4.846a7.613,7.613,0,0,0,9.775,7.3,7.609,7.609,0,0,1-1.062-.4Z" fill="#ffbd86"/>
            </g>
          </g>
          <g id="XMLID_172_">
            <g id="Grupo_1029427" data-name="Grupo 1029427">
              <path id="Trazado_775677" data-name="Trazado 775677" d="M73.2,1.426A17.453,17.453,0,0,0,62.95,33l1.539-1.439,17.2.267,1.757,1.175A17.453,17.453,0,0,0,73.2,1.426Z" fill="#98bce5"/>
              <path id="Trazado_775678" data-name="Trazado 775678" d="M67.815,27.237A17.458,17.458,0,0,1,78.167,2.145,17.455,17.455,0,0,0,62.948,33Z" fill="#7bacdf"/>
              <path id="Trazado_775679" data-name="Trazado 775679" d="M73.2,30.943A12.066,12.066,0,1,1,85.266,18.878,12.078,12.078,0,0,1,73.2,30.943Z" fill="#5f99d7"/>
              <path id="Trazado_775680" data-name="Trazado 775680" d="M70.172,30.558a17.445,17.445,0,0,1,0-23.362,12.067,12.067,0,0,0,0,23.362Z" fill="#3c87d0"/>
            </g>
          </g>
          <g id="XMLID_173_">
            <g id="Grupo_1029429" data-name="Grupo 1029429">
              <g id="Grupo_1029428" data-name="Grupo 1029428">
                <path id="Trazado_775681" data-name="Trazado 775681" d="M73.2,21.843a10.24,10.24,0,0,1,10.24,10.24l.009.923a17.462,17.462,0,0,1-20.5,0l.011-.921A10.241,10.241,0,0,1,73.2,21.843Z" fill="#f37c7c"/>
                <path id="Trazado_775682" data-name="Trazado 775682" d="M73.2,6.812a7.516,7.516,0,1,1-7.515,7.515A7.516,7.516,0,0,1,73.2,6.812Z" fill="#ffe5c2"/>
              </g>
            </g>
          </g>
          <g id="XMLID_210_">
            <g id="Grupo_1029431" data-name="Grupo 1029431">
              <g id="Grupo_1029430" data-name="Grupo 1029430">
                <path id="Trazado_775683" data-name="Trazado 775683" d="M66.969,34.716a10.248,10.248,0,0,1,13.7-9.643,10.241,10.241,0,0,0-17.706,7.01L62.948,33a16.66,16.66,0,0,0,4.016,2.213Z" fill="#ee6161"/>
                <path id="Trazado_775684" data-name="Trazado 775684" d="M70.913,14.127a7.522,7.522,0,0,1,4.636-6.941,7.516,7.516,0,1,0,.535,14.082,7.519,7.519,0,0,1-5.171-7.141Z" fill="#fed2a4"/>
              </g>
            </g>
          </g>
          <g id="XMLID_191_">
            <path id="Trazado_775685" data-name="Trazado 775685" d="M73.2,55.669A17.454,17.454,0,0,0,62.962,87.256l1.664-.712L82.4,86.9l1.041.352A17.454,17.454,0,0,0,73.2,55.669Z" fill="#98bce5"/>
            <path id="Trazado_775686" data-name="Trazado 775686" d="M67.423,81.509A17.461,17.461,0,0,1,77.964,56.329,17.456,17.456,0,0,0,62.959,87.257Z" fill="#7bacdf"/>
            <g id="Grupo_1029432" data-name="Grupo 1029432">
              <path id="Trazado_775687" data-name="Trazado 775687" d="M73.2,85.188A12.066,12.066,0,1,1,85.266,73.122,12.079,12.079,0,0,1,73.2,85.188Z" fill="#5f99d7"/>
            </g>
            <path id="Trazado_775688" data-name="Trazado 775688" d="M69.631,84.649A17.45,17.45,0,0,1,69.625,61.6a12.068,12.068,0,0,0,.005,23.053Z" fill="#3c87d0"/>
          </g>
          <circle id="Elipse_8797" data-name="Elipse 8797" cx="7.516" cy="7.516" r="7.516" transform="translate(65.684 61.056)" fill="#ffe5c2"/>
          <path id="Trazado_775689" data-name="Trazado 775689" d="M70.3,68.572a7.522,7.522,0,0,1,5.215-7.154,7.516,7.516,0,1,0,0,14.308A7.522,7.522,0,0,1,70.3,68.572Z" fill="#fed2a4"/>
          <g id="XMLID_192_">
            <g id="Grupo_1029433" data-name="Grupo 1029433">
              <path id="Trazado_775690" data-name="Trazado 775690" d="M83.44,87.257a17.46,17.46,0,0,1-20.481,0v-.928a10.24,10.24,0,1,1,20.481,0Z" fill="#fee97d"/>
            </g>
          </g>
          <path id="Trazado_775691" data-name="Trazado 775691" d="M66.857,88.875A10.248,10.248,0,0,1,80.6,79.249a10.241,10.241,0,0,0-17.639,7.08v.928a17.469,17.469,0,0,0,3.9,2.13Z" fill="#fee45a"/>
        </g>
      </g>
      <g id="Grupo_1029436" data-name="Grupo 1029436">
        <path id="Trazado_775692" data-name="Trazado 775692" d="M37.987,34.363A1.347,1.347,0,1,0,36,36.18a16.06,16.06,0,0,1,2.93,4.567,1.347,1.347,0,0,0,2.479-1.052,18.742,18.742,0,0,0-3.421-5.332Z"/>
        <path id="Trazado_775693" data-name="Trazado 775693" d="M74.547,54.371V52.262a1.347,1.347,0,1,0-2.693,0v2.109A18.841,18.841,0,0,0,55.711,66.225l-10.88-6.8a24.092,24.092,0,0,0,.078-24.715l11.573-7.237A18.832,18.832,0,0,0,71.853,37.629v2.125a1.347,1.347,0,1,0,2.693,0V37.629A18.8,18.8,0,1,0,55.411,24.962L43.405,32.469a24.141,24.141,0,1,0-.093,29.179l11.569,7.235A18.8,18.8,0,1,0,74.547,54.371Zm3.66-32.736A8.853,8.853,0,0,0,81.9,12.62a10.682,10.682,0,0,1,.265,12.126,11.661,11.661,0,0,0-3.955-3.112ZM67.031,14.327A6.169,6.169,0,1,1,73.2,20.5,6.176,6.176,0,0,1,67.031,14.327Zm1.163,7.308a11.656,11.656,0,0,0-3.954,3.111A10.679,10.679,0,0,1,64.5,12.62a8.851,8.851,0,0,0,3.69,9.015ZM64.306,32.083a8.894,8.894,0,1,1,17.788,0V32.3a16.072,16.072,0,0,1-17.788,0ZM73.2,2.771A16.1,16.1,0,0,1,84.634,30.21a11.487,11.487,0,0,0-.928-3.008,13.413,13.413,0,1,0-21.01,0,11.489,11.489,0,0,0-.928,3.008A16.1,16.1,0,0,1,73.2,2.771ZM14.27,66.035V61.5a2.866,2.866,0,0,1,1.038-2.211l5.059-4.2a4.613,4.613,0,0,0,7.508,0l5.059,4.2A2.866,2.866,0,0,1,33.972,61.5v4.559a21.416,21.416,0,0,1-19.7-.02ZM30.408,36.958H17.872V31.879l1.713.563a1.343,1.343,0,0,0,.42.067h8.663a1.741,1.741,0,0,1,1.739,1.739v2.71ZM17.872,39.651H30.408v3.5a6.268,6.268,0,1,1-12.536,0v-3.5ZM24.14,52.112a8.949,8.949,0,0,0,1.907-.206V52.4a1.926,1.926,0,1,1-3.852,0v-.5a8.95,8.95,0,0,0,1.945.215ZM36.665,64.4V61.5c0-.178-.01-.354-.027-.53A18.7,18.7,0,0,0,42.893,47c0-.347-.012-.708-.038-1.138a1.347,1.347,0,0,0-2.688.162c.023.375.033.685.033.976a16,16,0,0,1-4.594,11.233,5.581,5.581,0,0,0-.952-1.018L28.741,52.3V50.837A8.965,8.965,0,0,0,33.1,43.15v-8.9a4.437,4.437,0,0,0-4.432-4.432H20.222L17.74,29a1.951,1.951,0,0,0-2.561,1.854v12.3A8.964,8.964,0,0,0,19.5,50.815V52.3l-5.914,4.911a5.586,5.586,0,0,0-.935.995,16.027,16.027,0,0,1-.37-22.028,1.347,1.347,0,0,0-1.989-1.816,18.725,18.725,0,0,0,1.312,26.573,5.588,5.588,0,0,0-.029.561v2.872a21.447,21.447,0,1,1,25.089.028ZM73.2,74.741a6.169,6.169,0,1,1,6.169-6.169A6.176,6.176,0,0,1,73.2,74.741ZM68.193,75.88a11.658,11.658,0,0,0-3.955,3.112A10.682,10.682,0,0,1,64.5,66.867a8.861,8.861,0,0,0,3.691,9.013ZM64.306,86.544v-.215a8.894,8.894,0,0,1,17.788,0v.215a16.072,16.072,0,0,1-17.788,0Zm20.327-2.089a11.493,11.493,0,0,0-.927-3.005,13.41,13.41,0,0,0,2.587-5.425,1.347,1.347,0,0,0-2.63-.583,10.7,10.7,0,0,1-1.5,3.55,11.656,11.656,0,0,0-3.955-3.112,8.852,8.852,0,0,0,3.69-9.014,10.671,10.671,0,0,1,1.656,3.478,1.347,1.347,0,1,0,2.6-.7,13.411,13.411,0,1,0-23.458,11.8,11.489,11.489,0,0,0-.928,3.008,16.107,16.107,0,1,1,22.867,0Z"/>
        <path id="Trazado_775694" data-name="Trazado 775694" d="M73.2,43.573a1.347,1.347,0,0,0-1.347,1.347V47a1.347,1.347,0,1,0,2.693,0V44.92A1.347,1.347,0,0,0,73.2,43.573Z"/>
      </g>
    </g>
  </g>
</svg>
