<svg xmlns="http://www.w3.org/2000/svg" xmlns:xlink="http://www.w3.org/1999/xlink" width="92" height="92" viewBox="0 0 92 92">
  <defs>
    <clipPath id="clip-path">
      <rect id="Rectángulo_361718" data-name="Rectángulo 361718" width="92" height="92" transform="translate(334 2590)" fill="#fff"/>
    </clipPath>
  </defs>
  <g id="Enmascarar_grupo_998590" data-name="Enmascarar grupo 998590" transform="translate(-334 -2590)" clip-path="url(#clip-path)">
    <g id="personal" transform="translate(334 2590)">
      <g id="Grupo_1029401" data-name="Grupo 1029401">
        <g id="Grupo_1029395" data-name="Grupo 1029395">
          <path id="Trazado_775578" data-name="Trazado 775578" d="M86.237,62.214a11.644,11.644,0,0,1-.863,4.413c-2.309,3.079-3.543,4.189-5.985,5.462l-9.031-.025c-3.737-1.948-6.849-5.337-6.849-9.843,0-3.471,1.421-5.809,3.287-8.734a11.68,11.68,0,0,1,19.441,8.728Z" fill="#f5f8f9"/>
          <circle id="Elipse_8767" data-name="Elipse 8767" cx="3.324" cy="3.324" r="3.324" transform="translate(71.233 56.014)" fill="#a6764a"/>
          <path id="Trazado_775579" data-name="Trazado 775579" d="M85.374,66.627a11.717,11.717,0,0,1-5.427,5.951l-5.391.266-5.391-.266A11.682,11.682,0,0,1,66.8,53.486,11.677,11.677,0,0,0,85.374,66.627Z" fill="#e8edf2"/>
          <path id="Trazado_775580" data-name="Trazado 775580" d="M79.948,71.512V69.938a2.7,2.7,0,0,0-2.7-2.7H71.862a2.7,2.7,0,0,0-2.7,2.7v.694A19.328,19.328,0,0,0,79.948,71.512Z" fill="#2baef7"/>
          <path id="Trazado_775581" data-name="Trazado 775581" d="M79.947,69.938v2.64a11.7,11.7,0,0,1-10.781,0v-2.64a2.694,2.694,0,0,1,1.7-2.5,11.877,11.877,0,0,0,1.358.83,11.731,11.731,0,0,0,7.664,1.094A2.668,2.668,0,0,1,79.947,69.938Z" fill="#21a1e8"/>
        </g>
        <g id="Grupo_1029396" data-name="Grupo 1029396">
          <path id="Trazado_775582" data-name="Trazado 775582" d="M29.123,62.214a11.644,11.644,0,0,1-.863,4.413c-2.309,3.079-3.543,4.189-5.985,5.462l-9.031-.025c-3.737-1.948-6.849-5.337-6.849-9.843,0-3.471,1.421-5.809,3.287-8.734a11.68,11.68,0,0,1,19.441,8.728Z" fill="#f5f8f9"/>
          <circle id="Elipse_8768" data-name="Elipse 8768" cx="3.324" cy="3.324" r="3.324" transform="translate(14.119 56.014)" fill="#a6764a"/>
          <path id="Trazado_775583" data-name="Trazado 775583" d="M28.26,66.627a11.717,11.717,0,0,1-5.427,5.951l-5.391.266-5.391-.266a11.682,11.682,0,0,1-2.37-19.092A11.677,11.677,0,0,0,28.26,66.627Z" fill="#e8edf2"/>
          <path id="Trazado_775584" data-name="Trazado 775584" d="M22.834,71.512V69.938a2.7,2.7,0,0,0-2.7-2.7H14.748a2.7,2.7,0,0,0-2.7,2.7v.694A19.328,19.328,0,0,0,22.834,71.512Z" fill="#ff529d"/>
          <path id="Trazado_775585" data-name="Trazado 775585" d="M22.833,69.938v2.64a11.7,11.7,0,0,1-10.781,0v-2.64a2.694,2.694,0,0,1,1.7-2.5,11.876,11.876,0,0,0,1.358.83,11.731,11.731,0,0,0,7.664,1.094A2.668,2.668,0,0,1,22.833,69.938Z" fill="#ff318e"/>
        </g>
        <g id="Grupo_1029397" data-name="Grupo 1029397">
          <path id="Trazado_775586" data-name="Trazado 775586" d="M86.237,29.379a11.644,11.644,0,0,1-.863,4.413c-2.309,3.079-3.543,4.189-5.985,5.462l-9.031-.025c-3.737-1.948-6.849-5.337-6.849-9.843,0-3.471,1.421-5.809,3.287-8.734a11.679,11.679,0,0,1,19.441,8.728Z" fill="#f5f8f9"/>
          <circle id="Elipse_8769" data-name="Elipse 8769" cx="3.324" cy="3.324" r="3.324" transform="translate(71.233 23.18)" fill="#ffd8a1"/>
          <path id="Trazado_775587" data-name="Trazado 775587" d="M85.374,33.792a11.717,11.717,0,0,1-5.427,5.951l-5.391.266-5.391-.266A11.682,11.682,0,0,1,66.8,20.651,11.677,11.677,0,0,0,85.374,33.792Z" fill="#e8edf2"/>
          <path id="Trazado_775588" data-name="Trazado 775588" d="M79.948,38.677V37.1a2.7,2.7,0,0,0-2.7-2.7H71.862a2.7,2.7,0,0,0-2.7,2.7V37.8A19.328,19.328,0,0,0,79.948,38.677Z" fill="#ffe97b"/>
          <path id="Trazado_775589" data-name="Trazado 775589" d="M79.948,37.1v2.64a11.7,11.7,0,0,1-10.781,0V37.1a2.694,2.694,0,0,1,1.7-2.5,11.877,11.877,0,0,0,1.358.83,11.731,11.731,0,0,0,7.664,1.094A2.668,2.668,0,0,1,79.948,37.1Z" fill="#ffde2e"/>
        </g>
        <g id="Grupo_1029398" data-name="Grupo 1029398">
          <path id="Trazado_775590" data-name="Trazado 775590" d="M29.123,29.379a11.644,11.644,0,0,1-.863,4.413c-2.309,3.079-3.543,4.189-5.985,5.462l-9.031-.025c-3.737-1.948-6.849-5.337-6.849-9.843,0-3.471,1.421-5.809,3.287-8.734a11.679,11.679,0,0,1,19.441,8.728Z" fill="#f5f8f9"/>
          <circle id="Elipse_8770" data-name="Elipse 8770" cx="3.324" cy="3.324" r="3.324" transform="translate(14.119 23.18)" fill="#ffd8a1"/>
          <path id="Trazado_775591" data-name="Trazado 775591" d="M28.26,33.792a11.718,11.718,0,0,1-5.427,5.951l-5.391.266-5.391-.266a11.682,11.682,0,0,1-2.37-19.092A11.677,11.677,0,0,0,28.26,33.792Z" fill="#e8edf2"/>
          <path id="Trazado_775592" data-name="Trazado 775592" d="M22.834,38.677V37.1a2.7,2.7,0,0,0-2.7-2.7H14.748a2.7,2.7,0,0,0-2.7,2.7V37.8A19.327,19.327,0,0,0,22.834,38.677Z" fill="#f90"/>
          <path id="Trazado_775593" data-name="Trazado 775593" d="M22.833,37.1v2.64a11.7,11.7,0,0,1-10.781,0V37.1a2.694,2.694,0,0,1,1.7-2.5,11.877,11.877,0,0,0,1.358.83,11.731,11.731,0,0,0,7.664,1.094A2.668,2.668,0,0,1,22.833,37.1Z" fill="#ff8700"/>
        </g>
        <g id="Grupo_1029399" data-name="Grupo 1029399">
          <path id="Trazado_775594" data-name="Trazado 775594" d="M57.684,78.883a11.644,11.644,0,0,1-.863,4.413c-2.309,3.079-3.543,4.189-5.985,5.462L41.8,88.732c-3.737-1.948-6.849-5.337-6.849-9.843,0-3.471,1.421-5.809,3.287-8.734a11.679,11.679,0,0,1,19.441,8.728Z" fill="#f5f8f9"/>
          <circle id="Elipse_8771" data-name="Elipse 8771" cx="3.324" cy="3.324" r="3.324" transform="translate(42.68 72.684)" fill="#ffd8a1"/>
          <path id="Trazado_775595" data-name="Trazado 775595" d="M56.821,83.3a11.717,11.717,0,0,1-5.427,5.951L46,89.513l-5.391-.266a11.682,11.682,0,0,1-2.37-19.092A11.677,11.677,0,0,0,56.821,83.3Z" fill="#e8edf2"/>
          <path id="Trazado_775596" data-name="Trazado 775596" d="M51.395,88.181V86.608a2.7,2.7,0,0,0-2.7-2.7H43.309a2.7,2.7,0,0,0-2.7,2.7V87.3A19.327,19.327,0,0,0,51.395,88.181Z" fill="#f90"/>
          <path id="Trazado_775597" data-name="Trazado 775597" d="M51.394,86.608v2.64a11.7,11.7,0,0,1-10.781,0v-2.64a2.694,2.694,0,0,1,1.7-2.5,11.876,11.876,0,0,0,1.358.83,11.731,11.731,0,0,0,7.664,1.094A2.668,2.668,0,0,1,51.394,86.608Z" fill="#ff8700"/>
        </g>
        <path id="Trazado_775598" data-name="Trazado 775598" d="M61.117,50.257l-2.14-1.236a.179.179,0,0,1-.084-.192,13.17,13.17,0,0,0,0-5.657.179.179,0,0,1,.084-.192l2.14-1.236a.18.18,0,0,0,.066-.246l-3.693-6.4a.182.182,0,0,0-.246-.066L55.1,36.274a.182.182,0,0,1-.21-.023A13.167,13.167,0,0,0,50,33.416a.177.177,0,0,1-.126-.169V30.779a.18.18,0,0,0-.18-.18H42.307a.18.18,0,0,0-.18.18v2.469a.177.177,0,0,1-.126.169,13.167,13.167,0,0,0-4.9,2.834.182.182,0,0,1-.21.023l-2.14-1.238a.182.182,0,0,0-.246.066l-3.693,6.4a.18.18,0,0,0,.066.246l2.14,1.236a.179.179,0,0,1,.084.192,13.17,13.17,0,0,0,0,5.657.179.179,0,0,1-.084.192l-2.14,1.236a.18.18,0,0,0-.066.246l3.693,6.4a.182.182,0,0,0,.246.066l2.14-1.238a.182.182,0,0,1,.21.023A13.167,13.167,0,0,0,42,58.584a.177.177,0,0,1,.126.169v2.469a.18.18,0,0,0,.18.18h7.385a.18.18,0,0,0,.18-.18V58.752A.177.177,0,0,1,50,58.584a13.167,13.167,0,0,0,4.9-2.834.182.182,0,0,1,.21-.023l2.14,1.238a.182.182,0,0,0,.246-.066l3.693-6.4A.18.18,0,0,0,61.117,50.257ZM46,53.935A7.935,7.935,0,1,1,53.939,46,7.935,7.935,0,0,1,46,53.935Z" fill="#d9e7ec"/>
        <path id="Trazado_775599" data-name="Trazado 775599" d="M46,35.938A10.063,10.063,0,1,0,56.063,46,10.074,10.074,0,0,0,46,35.938Zm0,17.25A7.188,7.188,0,1,1,53.188,46,7.188,7.188,0,0,1,46,53.188Z" fill="#c5d3dd"/>
        <g id="Grupo_1029400" data-name="Grupo 1029400">
          <path id="Trazado_775600" data-name="Trazado 775600" d="M57.683,13.027a11.644,11.644,0,0,1-.863,4.413c-2.309,3.079-3.543,4.189-5.985,5.462L41.8,22.877c-3.737-1.948-6.849-5.337-6.849-9.843,0-3.471,1.421-5.809,3.287-8.734a11.679,11.679,0,0,1,19.441,8.728Z" fill="#f5f8f9"/>
          <circle id="Elipse_8772" data-name="Elipse 8772" cx="3.324" cy="3.324" r="3.324" transform="translate(42.68 6.828)" fill="#a6764a"/>
          <path id="Trazado_775601" data-name="Trazado 775601" d="M56.821,17.44a11.717,11.717,0,0,1-5.427,5.951L46,23.658l-5.391-.266A11.682,11.682,0,0,1,38.243,4.3,11.677,11.677,0,0,0,56.821,17.44Z" fill="#e8edf2"/>
          <path id="Trazado_775602" data-name="Trazado 775602" d="M51.395,22.326V20.752a2.7,2.7,0,0,0-2.7-2.7H43.308a2.7,2.7,0,0,0-2.7,2.7v.694A19.328,19.328,0,0,0,51.395,22.326Z" fill="#3fe0c1"/>
          <path id="Trazado_775603" data-name="Trazado 775603" d="M51.394,20.752v2.64a11.7,11.7,0,0,1-10.781,0v-2.64a2.694,2.694,0,0,1,1.7-2.5,11.877,11.877,0,0,0,1.358.83,11.731,11.731,0,0,0,7.664,1.094A2.668,2.668,0,0,1,51.394,20.752Z" fill="#20d1a2"/>
        </g>
      </g>
      <g id="Grupo_1029410" data-name="Grupo 1029410">
        <g id="Grupo_1029409" data-name="Grupo 1029409">
          <g id="Grupo_1029402" data-name="Grupo 1029402">
            <circle id="Elipse_8773" data-name="Elipse 8773" cx="3.145" cy="3.145" r="3.145" transform="translate(42.859 6.648)" fill="none" stroke="#000" stroke-linecap="round" stroke-linejoin="round" stroke-miterlimit="10" stroke-width="2.695"/>
            <path id="Trazado_775604" data-name="Trazado 775604" d="M40.613,23.39V20.752a2.7,2.7,0,0,1,2.7-2.7H48.7a2.7,2.7,0,0,1,2.7,2.7V23.39" fill="none" stroke="#000" stroke-linecap="round" stroke-linejoin="round" stroke-miterlimit="10" stroke-width="2.695"/>
          </g>
          <g id="Grupo_1029403" data-name="Grupo 1029403">
            <path id="Trazado_775605" data-name="Trazado 775605" d="M57.68,12.726q0,.15,0,.3a11.676,11.676,0,1,1-1.828-6.277" fill="none" stroke="#000" stroke-linecap="round" stroke-linejoin="round" stroke-miterlimit="10" stroke-width="2.695"/>
            <circle id="Elipse_8774" data-name="Elipse 8774" cx="3.145" cy="3.145" r="3.145" transform="translate(42.859 6.648)" fill="none" stroke="#000" stroke-linecap="round" stroke-linejoin="round" stroke-miterlimit="10" stroke-width="2.695"/>
            <path id="Trazado_775606" data-name="Trazado 775606" d="M40.613,23.39V20.752a2.7,2.7,0,0,1,2.7-2.7H48.7a2.7,2.7,0,0,1,2.7,2.7V23.39" fill="none" stroke="#000" stroke-linecap="round" stroke-linejoin="round" stroke-miterlimit="10" stroke-width="2.695"/>
          </g>
          <g id="Grupo_1029404" data-name="Grupo 1029404">
            <circle id="Elipse_8775" data-name="Elipse 8775" cx="11.68" cy="11.68" r="11.68" transform="translate(5.767 17.831)" fill="none" stroke="#000" stroke-linecap="round" stroke-linejoin="round" stroke-miterlimit="10" stroke-width="2.695"/>
            <circle id="Elipse_8776" data-name="Elipse 8776" cx="3.145" cy="3.145" r="3.145" transform="translate(14.302 23.132)" fill="none" stroke="#000" stroke-linecap="round" stroke-linejoin="round" stroke-miterlimit="10" stroke-width="2.695"/>
            <path id="Trazado_775607" data-name="Trazado 775607" d="M12.056,39.874V37.235a2.7,2.7,0,0,1,2.7-2.7h5.391a2.7,2.7,0,0,1,2.7,2.7v2.639" fill="none" stroke="#000" stroke-linecap="round" stroke-linejoin="round" stroke-miterlimit="10" stroke-width="2.695"/>
          </g>
          <g id="Grupo_1029405" data-name="Grupo 1029405">
            <path id="Trazado_775608" data-name="Trazado 775608" d="M12.173,52.057a11.68,11.68,0,1,1-4.631,4.227" fill="none" stroke="#000" stroke-linecap="round" stroke-linejoin="round" stroke-miterlimit="10" stroke-width="2.695"/>
            <circle id="Elipse_8777" data-name="Elipse 8777" cx="3.145" cy="3.145" r="3.145" transform="translate(14.298 56.104)" fill="none" stroke="#000" stroke-linecap="round" stroke-linejoin="round" stroke-miterlimit="10" stroke-width="2.695"/>
            <path id="Trazado_775609" data-name="Trazado 775609" d="M12.052,72.846V70.208a2.7,2.7,0,0,1,2.7-2.7h5.391a2.7,2.7,0,0,1,2.7,2.7v2.639" fill="none" stroke="#000" stroke-linecap="round" stroke-linejoin="round" stroke-miterlimit="10" stroke-width="2.695"/>
          </g>
          <g id="Grupo_1029406" data-name="Grupo 1029406">
            <path id="Trazado_775610" data-name="Trazado 775610" d="M57.46,81.221A11.677,11.677,0,1,1,57,75.051" fill="none" stroke="#000" stroke-linecap="round" stroke-linejoin="round" stroke-miterlimit="10" stroke-width="2.695"/>
            <circle id="Elipse_8778" data-name="Elipse 8778" cx="3.145" cy="3.145" r="3.145" transform="translate(42.852 72.594)" fill="none" stroke="#000" stroke-linecap="round" stroke-linejoin="round" stroke-miterlimit="10" stroke-width="2.695"/>
            <path id="Trazado_775611" data-name="Trazado 775611" d="M40.606,89.336V86.7A2.7,2.7,0,0,1,43.3,84h5.391a2.7,2.7,0,0,1,2.7,2.7v2.639" fill="none" stroke="#000" stroke-linecap="round" stroke-linejoin="round" stroke-miterlimit="10" stroke-width="2.695"/>
          </g>
          <g id="Grupo_1029407" data-name="Grupo 1029407">
            <circle id="Elipse_8779" data-name="Elipse 8779" cx="11.68" cy="11.68" r="11.68" transform="translate(62.874 50.81)" fill="none" stroke="#000" stroke-linecap="round" stroke-linejoin="round" stroke-miterlimit="10" stroke-width="2.695"/>
            <circle id="Elipse_8780" data-name="Elipse 8780" cx="3.145" cy="3.145" r="3.145" transform="translate(71.409 56.111)" fill="none" stroke="#000" stroke-linecap="round" stroke-linejoin="round" stroke-miterlimit="10" stroke-width="2.695"/>
            <path id="Trazado_775612" data-name="Trazado 775612" d="M69.163,72.853V70.214a2.7,2.7,0,0,1,2.7-2.7h5.391a2.7,2.7,0,0,1,2.7,2.7v2.639" fill="none" stroke="#000" stroke-linecap="round" stroke-linejoin="round" stroke-miterlimit="10" stroke-width="2.695"/>
          </g>
          <g id="Grupo_1029408" data-name="Grupo 1029408">
            <circle id="Elipse_8781" data-name="Elipse 8781" cx="11.68" cy="11.68" r="11.68" transform="translate(62.877 17.837)" fill="none" stroke="#000" stroke-linecap="round" stroke-linejoin="round" stroke-miterlimit="10" stroke-width="2.695"/>
            <circle id="Elipse_8782" data-name="Elipse 8782" cx="3.145" cy="3.145" r="3.145" transform="translate(71.412 23.138)" fill="none" stroke="#000" stroke-linecap="round" stroke-linejoin="round" stroke-miterlimit="10" stroke-width="2.695"/>
            <path id="Trazado_775613" data-name="Trazado 775613" d="M69.166,39.88V37.242a2.7,2.7,0,0,1,2.7-2.7h5.391a2.7,2.7,0,0,1,2.7,2.7V39.88" fill="none" stroke="#000" stroke-linecap="round" stroke-linejoin="round" stroke-miterlimit="10" stroke-width="2.695"/>
          </g>
        </g>
        <path id="Trazado_775614" data-name="Trazado 775614" d="M59.2,46a13.215,13.215,0,0,0-.308-2.828.178.178,0,0,1,.085-.193l2.14-1.236a.18.18,0,0,0,.066-.245l-3.692-6.4a.18.18,0,0,0-.245-.066L55.1,36.273a.178.178,0,0,1-.21-.023A13.182,13.182,0,0,0,50,33.417a.178.178,0,0,1-.125-.17V30.779a.18.18,0,0,0-.18-.18H42.308a.18.18,0,0,0-.18.18v2.468a.178.178,0,0,1-.125.17,13.183,13.183,0,0,0-4.9,2.833.178.178,0,0,1-.21.023l-2.142-1.237a.18.18,0,0,0-.245.066l-3.693,6.4a.18.18,0,0,0,.066.245l2.14,1.236a.178.178,0,0,1,.085.193,13.149,13.149,0,0,0,0,5.657.178.178,0,0,1-.085.193l-2.14,1.236a.18.18,0,0,0-.066.245l3.692,6.4a.18.18,0,0,0,.245.066L36.9,55.727a.178.178,0,0,1,.21.023A13.183,13.183,0,0,0,42,58.583a.178.178,0,0,1,.125.17v2.468a.18.18,0,0,0,.18.18h7.385a.18.18,0,0,0,.18-.18V58.753a.178.178,0,0,1,.125-.17,13.182,13.182,0,0,0,4.9-2.833.178.178,0,0,1,.21-.023l2.142,1.237a.18.18,0,0,0,.245-.066l3.692-6.4a.18.18,0,0,0-.066-.245l-2.14-1.236a.178.178,0,0,1-.085-.193A13.193,13.193,0,0,0,59.2,46Z" fill="none" stroke="#000" stroke-linecap="round" stroke-linejoin="round" stroke-miterlimit="10" stroke-width="2.695"/>
        <path id="Trazado_775615" data-name="Trazado 775615" d="M53.117,47.008A7.188,7.188,0,1,0,46,53.188a7.153,7.153,0,0,0,3.739-1.048" fill="none" stroke="#000" stroke-linecap="round" stroke-linejoin="round" stroke-miterlimit="10" stroke-width="2.695"/>
      </g>
    </g>
  </g>
</svg>
